<?xml version="1.0" encoding="UTF-8"?>
<svg width="554px" height="715px" viewBox="0 0 554 715" version="1.1" xmlns="http://www.w3.org/2000/svg" xmlns:xlink="http://www.w3.org/1999/xlink">
    <!-- Generator: Sketch 57.1 (83088) - https://sketch.com -->
    <title>xxxhdpi/25pp</title>
    <desc>Created with Sketch.</desc>
    <g id="25pp" stroke="none" stroke-width="1" fill="none" fill-rule="evenodd" transform="translate(0.000000, 0.000000)">
        <rect fill="#FFFFFF" x="0" y="0" width="554" height="715"></rect>
        <g id="Items" transform="translate(80.000000, 128.000000)" fill="#CCF6F6">
            <rect id="Rectangle" x="0" y="0" width="40" height="40" rx="3"></rect>
        </g>
        <g id="Items" transform="translate(125.000000, 128.000000)" fill="#CCF6F6">
            <rect id="Rectangle" x="0" y="0" width="40" height="40" rx="3"></rect>
        </g>
        <g id="Items" transform="translate(170.000000, 128.000000)" fill="#CCF6F6">
            <rect id="Rectangle" x="0" y="0" width="40" height="40" rx="3"></rect>
        </g>
        <g id="Items" transform="translate(215.000000, 128.000000)" fill="#CCF6F6">
            <rect id="Rectangle" x="0" y="0" width="40" height="40" rx="3"></rect>
        </g>
        <g id="Items" transform="translate(80.000000, 173.000000)" fill="#CCF6F6">
            <rect id="Rectangle" x="0" y="0" width="40" height="40" rx="3"></rect>
        </g>
        <g id="Items" transform="translate(35.000000, 128.000000)" fill="#CCF6F6">
            <rect id="Rectangle" x="0" y="0" width="40" height="40" rx="3"></rect>
        </g>
        <g id="Items" transform="translate(35.000000, 173.000000)" fill="#CCF6F6">
            <rect id="Rectangle" x="0" y="0" width="40" height="40" rx="3"></rect>
        </g>
        <g id="Items" transform="translate(125.000000, 173.000000)" fill="#CCF6F6">
            <rect id="Rectangle" x="0" y="0" width="40" height="40" rx="3"></rect>
        </g>
        <g id="Items" transform="translate(170.000000, 173.000000)" fill="#CCF6F6">
            <rect id="Rectangle" x="0" y="0" width="40" height="40" rx="3"></rect>
        </g>
        <g id="Items" transform="translate(215.000000, 173.000000)" fill="#CCF6F6">
            <rect id="Rectangle" x="0" y="0" width="40" height="40" rx="3"></rect>
        </g>
        <g id="Items" transform="translate(80.000000, 218.000000)" fill="#CCF6F6">
            <rect id="Rectangle" x="0" y="0" width="40" height="40" rx="3"></rect>
        </g>
        <g id="Items" transform="translate(35.000000, 218.000000)" fill="#CCF6F6">
            <rect id="Rectangle" x="0" y="0" width="40" height="40" rx="3"></rect>
        </g>
        <g id="Items" transform="translate(125.000000, 218.000000)" fill="#CCF6F6">
            <rect id="Rectangle" x="0" y="0" width="40" height="40" rx="3"></rect>
        </g>
        <g id="Items" transform="translate(170.000000, 218.000000)" fill="#CCF6F6">
            <rect id="Rectangle" x="0" y="0" width="40" height="40" rx="3"></rect>
        </g>
        <g id="Items" transform="translate(215.000000, 218.000000)" fill="#CCF6F6">
            <rect id="Rectangle" x="0" y="0" width="40" height="40" rx="3"></rect>
        </g>
        <g id="Items" transform="translate(80.000000, 263.000000)" fill="#CCF6F6">
            <rect id="Rectangle" x="0" y="0" width="40" height="40" rx="3"></rect>
        </g>
        <g id="Items" transform="translate(35.000000, 263.000000)" fill="#CCF6F6">
            <rect id="Rectangle" x="0" y="0" width="40" height="40" rx="3"></rect>
        </g>
        <g id="Items" transform="translate(125.000000, 263.000000)" fill="#CCF6F6">
            <rect id="Rectangle" x="0" y="0" width="40" height="40" rx="3"></rect>
        </g>
        <g id="Items" transform="translate(170.000000, 263.000000)" fill="#CCF6F6">
            <rect id="Rectangle" x="0" y="0" width="40" height="40" rx="3"></rect>
        </g>
        <g id="Items" transform="translate(215.000000, 263.000000)" fill="#CCF6F6">
            <rect id="Rectangle" x="0" y="0" width="40" height="40" rx="3"></rect>
        </g>
        <g id="Items" transform="translate(80.000000, 308.000000)" fill="#CCF6F6">
            <rect id="Rectangle" x="0" y="0" width="40" height="40" rx="3"></rect>
        </g>
        <g id="Items" transform="translate(35.000000, 308.000000)" fill="#CCF6F6">
            <rect id="Rectangle" x="0" y="0" width="40" height="40" rx="3"></rect>
        </g>
        <g id="Items" transform="translate(125.000000, 308.000000)" fill="#CCF6F6">
            <rect id="Rectangle" x="0" y="0" width="40" height="40" rx="3"></rect>
        </g>
        <g id="Items" transform="translate(170.000000, 308.000000)" fill="#CCF6F6">
            <rect id="Rectangle" x="0" y="0" width="40" height="40" rx="3"></rect>
        </g>
        <g id="Items" transform="translate(215.000000, 308.000000)" fill="#CCF6F6">
            <rect id="Rectangle" x="0" y="0" width="40" height="40" rx="3"></rect>
        </g>
        <rect id="Rectangle" stroke="#979797" opacity="0.315545945" x="24.5" y="115.5" width="240" height="249"></rect>
        <text id="Page-1" font-family="SFProDisplay-Regular, SF Pro Display" font-size="10" font-weight="normal" letter-spacing="0.178571429" fill="#666666">
            <tspan x="131.236258" y="104">Page 1</tspan>
        </text>
        <text id="Page-2" font-family="SFProDisplay-Regular, SF Pro Display" font-size="10" font-weight="normal" letter-spacing="0.178571429" fill="#666666">
            <tspan x="391.123465" y="104">Page 2</tspan>
        </text>
        <g id="Items" transform="translate(341.000000, 128.000000)" fill="#CCF6F6">
            <rect id="Rectangle" x="0" y="0" width="40" height="40" rx="3"></rect>
        </g>
        <g id="Items" transform="translate(386.000000, 128.000000)" fill="#CCF6F6">
            <rect id="Rectangle" x="0" y="0" width="40" height="40" rx="3"></rect>
        </g>
        <g id="Items" transform="translate(431.000000, 128.000000)" fill="#CCF6F6">
            <rect id="Rectangle" x="0" y="0" width="40" height="40" rx="3"></rect>
        </g>
        <g id="Items" transform="translate(476.000000, 128.000000)" fill="#CCF6F6">
            <rect id="Rectangle" x="0" y="0" width="40" height="40" rx="3"></rect>
        </g>
        <g id="Items" transform="translate(341.000000, 173.000000)" fill="#CCF6F6">
            <rect id="Rectangle" x="0" y="0" width="40" height="40" rx="3"></rect>
        </g>
        <g id="Items" transform="translate(296.000000, 128.000000)" fill="#CCF6F6">
            <rect id="Rectangle" x="0" y="0" width="40" height="40" rx="3"></rect>
        </g>
        <g id="Items" transform="translate(296.000000, 173.000000)" fill="#CCF6F6">
            <rect id="Rectangle" x="0" y="0" width="40" height="40" rx="3"></rect>
        </g>
        <g id="Items" transform="translate(386.000000, 173.000000)" fill="#CCF6F6">
            <rect id="Rectangle" x="0" y="0" width="40" height="40" rx="3"></rect>
        </g>
        <g id="Items" transform="translate(431.000000, 173.000000)" fill="#CCF6F6">
            <rect id="Rectangle" x="0" y="0" width="40" height="40" rx="3"></rect>
        </g>
        <g id="Items" transform="translate(476.000000, 173.000000)" fill="#CCF6F6">
            <rect id="Rectangle" x="0" y="0" width="40" height="40" rx="3"></rect>
        </g>
        <g id="Items" transform="translate(341.000000, 218.000000)" fill="#CCF6F6">
            <rect id="Rectangle" x="0" y="0" width="40" height="40" rx="3"></rect>
        </g>
        <g id="Items" transform="translate(296.000000, 218.000000)" fill="#CCF6F6">
            <rect id="Rectangle" x="0" y="0" width="40" height="40" rx="3"></rect>
        </g>
        <g id="Items" transform="translate(386.000000, 218.000000)" fill="#CCF6F6">
            <rect id="Rectangle" x="0" y="0" width="40" height="40" rx="3"></rect>
        </g>
        <g id="Items" transform="translate(431.000000, 218.000000)" fill="#CCF6F6">
            <rect id="Rectangle" x="0" y="0" width="40" height="40" rx="3"></rect>
        </g>
        <g id="Items" transform="translate(476.000000, 218.000000)" fill="#CCF6F6">
            <rect id="Rectangle" x="0" y="0" width="40" height="40" rx="3"></rect>
        </g>
        <g id="Items" transform="translate(341.000000, 263.000000)" fill="#CCF6F6">
            <rect id="Rectangle" x="0" y="0" width="40" height="40" rx="3"></rect>
        </g>
        <g id="Items" transform="translate(296.000000, 263.000000)" fill="#CCF6F6">
            <rect id="Rectangle" x="0" y="0" width="40" height="40" rx="3"></rect>
        </g>
        <g id="Items" transform="translate(386.000000, 263.000000)" fill="#CCF6F6">
            <rect id="Rectangle" x="0" y="0" width="40" height="40" rx="3"></rect>
        </g>
        <g id="Items" transform="translate(431.000000, 263.000000)" fill="#CCF6F6">
            <rect id="Rectangle" x="0" y="0" width="40" height="40" rx="3"></rect>
        </g>
        <g id="Items" transform="translate(476.000000, 263.000000)" fill="#CCF6F6">
            <rect id="Rectangle" x="0" y="0" width="40" height="40" rx="3"></rect>
        </g>
        <g id="Items" transform="translate(341.000000, 308.000000)" fill="#CCF6F6">
            <rect id="Rectangle" x="0" y="0" width="40" height="40" rx="3"></rect>
        </g>
        <g id="Items" transform="translate(296.000000, 308.000000)" fill="#CCF6F6">
            <rect id="Rectangle" x="0" y="0" width="40" height="40" rx="3"></rect>
        </g>
        <g id="Items" transform="translate(386.000000, 308.000000)" fill="#CCF6F6">
            <rect id="Rectangle" x="0" y="0" width="40" height="40" rx="3"></rect>
        </g>
        <g id="Items" transform="translate(431.000000, 308.000000)" fill="#CCF6F6">
            <rect id="Rectangle" x="0" y="0" width="40" height="40" rx="3"></rect>
        </g>
        <g id="Items" transform="translate(476.000000, 308.000000)" fill="#CCF6F6">
            <rect id="Rectangle" x="0" y="0" width="40" height="40" rx="3"></rect>
        </g>
        <rect id="Rectangle-Copy-2" stroke="#979797" opacity="0.315545945" x="285.5" y="115.5" width="240" height="249"></rect>
        <text id="Page-3" font-family="SFProDisplay-Regular, SF Pro Display" font-size="10" font-weight="normal" letter-spacing="0.178571429" fill="#666666">
            <tspan x="128.494071" y="390">Page 3</tspan>
        </text>
        <g id="Items" transform="translate(78.000000, 414.000000)" fill="#CCF6F6">
            <rect id="Rectangle" x="0" y="0" width="40" height="40" rx="3"></rect>
        </g>
        <g id="Items" transform="translate(123.000000, 414.000000)" fill="#CCF6F6">
            <rect id="Rectangle" x="0" y="0" width="40" height="40" rx="3"></rect>
        </g>
        <g id="Items" transform="translate(168.000000, 414.000000)" fill="#CCF6F6">
            <rect id="Rectangle" x="0" y="0" width="40" height="40" rx="3"></rect>
        </g>
        <g id="Items" transform="translate(213.000000, 414.000000)" fill="#CCF6F6">
            <rect id="Rectangle" x="0" y="0" width="40" height="40" rx="3"></rect>
        </g>
        <g id="Items" transform="translate(78.000000, 459.000000)" fill="#CCF6F6">
            <rect id="Rectangle" x="0" y="0" width="40" height="40" rx="3"></rect>
        </g>
        <g id="Items" transform="translate(33.000000, 414.000000)" fill="#CCF6F6">
            <rect id="Rectangle" x="0" y="0" width="40" height="40" rx="3"></rect>
        </g>
        <g id="Items" transform="translate(33.000000, 459.000000)" fill="#CCF6F6">
            <rect id="Rectangle" x="0" y="0" width="40" height="40" rx="3"></rect>
        </g>
        <g id="Items" transform="translate(123.000000, 459.000000)" fill="#CCF6F6">
            <rect id="Rectangle" x="0" y="0" width="40" height="40" rx="3"></rect>
        </g>
        <g id="Items" transform="translate(168.000000, 459.000000)" fill="#CCF6F6">
            <rect id="Rectangle" x="0" y="0" width="40" height="40" rx="3"></rect>
        </g>
        <g id="Items" transform="translate(213.000000, 459.000000)" fill="#CCF6F6">
            <rect id="Rectangle" x="0" y="0" width="40" height="40" rx="3"></rect>
        </g>
        <g id="Items" transform="translate(78.000000, 504.000000)" fill="#00FDFD">
            <rect id="Rectangle" x="0" y="0" width="40" height="40" rx="3"></rect>
        </g>
        <g id="Items" transform="translate(33.000000, 504.000000)" fill="#00FDFD">
            <rect id="Rectangle" x="0" y="0" width="40" height="40" rx="3"></rect>
        </g>
        <g id="Items" transform="translate(123.000000, 504.000000)" fill="#00FDFD">
            <rect id="Rectangle" x="0" y="0" width="40" height="40" rx="3"></rect>
        </g>
        <g id="Items" transform="translate(168.000000, 504.000000)" fill="#D8D8D8">
            <rect id="Rectangle" x="0" y="0" width="40" height="40" rx="3"></rect>
        </g>
        <g id="Items" transform="translate(213.000000, 504.000000)" fill="#D8D8D8">
            <rect id="Rectangle" x="0" y="0" width="40" height="40" rx="3"></rect>
        </g>
        <g id="Items" transform="translate(78.000000, 549.000000)" fill="#D8D8D8">
            <rect id="Rectangle" x="0" y="0" width="40" height="40" rx="3"></rect>
        </g>
        <g id="Items" transform="translate(33.000000, 549.000000)" fill="#D8D8D8">
            <rect id="Rectangle" x="0" y="0" width="40" height="40" rx="3"></rect>
        </g>
        <g id="Items" transform="translate(123.000000, 549.000000)" fill="#D8D8D8">
            <rect id="Rectangle" x="0" y="0" width="40" height="40" rx="3"></rect>
        </g>
        <g id="Items" transform="translate(168.000000, 549.000000)" fill="#D8D8D8">
            <rect id="Rectangle" x="0" y="0" width="40" height="40" rx="3"></rect>
        </g>
        <g id="Items" transform="translate(213.000000, 549.000000)" fill="#D8D8D8">
            <rect id="Rectangle" x="0" y="0" width="40" height="40" rx="3"></rect>
        </g>
        <g id="Items" transform="translate(78.000000, 594.000000)" fill="#D8D8D8">
            <rect id="Rectangle" x="0" y="0" width="40" height="40" rx="3"></rect>
        </g>
        <g id="Items" transform="translate(33.000000, 594.000000)" fill="#D8D8D8">
            <rect id="Rectangle" x="0" y="0" width="40" height="40" rx="3"></rect>
        </g>
        <g id="Items" transform="translate(123.000000, 594.000000)" fill="#D8D8D8">
            <rect id="Rectangle" x="0" y="0" width="40" height="40" rx="3"></rect>
        </g>
        <g id="Items" transform="translate(168.000000, 594.000000)" fill="#D8D8D8">
            <rect id="Rectangle" x="0" y="0" width="40" height="40" rx="3"></rect>
        </g>
        <g id="Items" transform="translate(213.000000, 594.000000)" fill="#D8D8D8">
            <rect id="Rectangle" x="0" y="0" width="40" height="40" rx="3"></rect>
        </g>
        <rect id="Rectangle-Copy-4" stroke="#979797" x="22.5" y="401.5" width="240" height="249"></rect>
        <text id="Page-4" font-family="SFProDisplay-Regular, SF Pro Display" font-size="10" font-weight="normal" letter-spacing="0.178571429" fill="#666666">
            <tspan x="390.313477" y="390">Page  4</tspan>
        </text>
        <g id="Items" transform="translate(341.000000, 414.000000)" fill="#D8D8D8">
            <rect id="Rectangle" x="0" y="0" width="40" height="40" rx="3"></rect>
        </g>
        <g id="Items" transform="translate(386.000000, 414.000000)" fill="#D8D8D8">
            <rect id="Rectangle" x="0" y="0" width="40" height="40" rx="3"></rect>
        </g>
        <g id="Items" transform="translate(431.000000, 414.000000)" fill="#D8D8D8">
            <rect id="Rectangle" x="0" y="0" width="40" height="40" rx="3"></rect>
        </g>
        <g id="Items" transform="translate(476.000000, 414.000000)" fill="#D8D8D8">
            <rect id="Rectangle" x="0" y="0" width="40" height="40" rx="3"></rect>
        </g>
        <g id="Items" transform="translate(341.000000, 459.000000)" fill="#D8D8D8">
            <rect id="Rectangle" x="0" y="0" width="40" height="40" rx="3"></rect>
        </g>
        <g id="Items" transform="translate(296.000000, 414.000000)" fill="#D8D8D8">
            <rect id="Rectangle" x="0" y="0" width="40" height="40" rx="3"></rect>
        </g>
        <g id="Items" transform="translate(296.000000, 459.000000)" fill="#D8D8D8">
            <rect id="Rectangle" x="0" y="0" width="40" height="40" rx="3"></rect>
        </g>
        <g id="Items" transform="translate(386.000000, 459.000000)" fill="#D8D8D8">
            <rect id="Rectangle" x="0" y="0" width="40" height="40" rx="3"></rect>
        </g>
        <g id="Items" transform="translate(431.000000, 459.000000)" fill="#D8D8D8">
            <rect id="Rectangle" x="0" y="0" width="40" height="40" rx="3"></rect>
        </g>
        <g id="Items" transform="translate(476.000000, 459.000000)" fill="#D8D8D8">
            <rect id="Rectangle" x="0" y="0" width="40" height="40" rx="3"></rect>
        </g>
        <g id="Items" transform="translate(341.000000, 504.000000)" fill="#D8D8D8">
            <rect id="Rectangle" x="0" y="0" width="40" height="40" rx="3"></rect>
        </g>
        <g id="Items" transform="translate(296.000000, 504.000000)" fill="#D8D8D8">
            <rect id="Rectangle" x="0" y="0" width="40" height="40" rx="3"></rect>
        </g>
        <g id="Items" transform="translate(386.000000, 504.000000)" fill="#D8D8D8">
            <rect id="Rectangle" x="0" y="0" width="40" height="40" rx="3"></rect>
        </g>
        <g id="Items" transform="translate(431.000000, 504.000000)" fill="#D8D8D8">
            <rect id="Rectangle" x="0" y="0" width="40" height="40" rx="3"></rect>
        </g>
        <g id="Items" transform="translate(476.000000, 504.000000)" fill="#D8D8D8">
            <rect id="Rectangle" x="0" y="0" width="40" height="40" rx="3"></rect>
        </g>
        <g id="Items" transform="translate(341.000000, 549.000000)" fill="#D8D8D8">
            <rect id="Rectangle" x="0" y="0" width="40" height="40" rx="3"></rect>
        </g>
        <g id="Items" transform="translate(296.000000, 549.000000)" fill="#D8D8D8">
            <rect id="Rectangle" x="0" y="0" width="40" height="40" rx="3"></rect>
        </g>
        <g id="Items" transform="translate(386.000000, 549.000000)" fill="#D8D8D8">
            <rect id="Rectangle" x="0" y="0" width="40" height="40" rx="3"></rect>
        </g>
        <g id="Items" transform="translate(431.000000, 549.000000)" fill="#D8D8D8">
            <rect id="Rectangle" x="0" y="0" width="40" height="40" rx="3"></rect>
        </g>
        <g id="Items" transform="translate(476.000000, 549.000000)" fill="#D8D8D8">
            <rect id="Rectangle" x="0" y="0" width="40" height="40" rx="3"></rect>
        </g>
        <g id="Items" transform="translate(341.000000, 594.000000)" fill="#D8D8D8">
            <rect id="Rectangle" x="0" y="0" width="40" height="40" rx="3"></rect>
        </g>
        <g id="Items" transform="translate(296.000000, 594.000000)" fill="#D8D8D8">
            <rect id="Rectangle" x="0" y="0" width="40" height="40" rx="3"></rect>
        </g>
        <g id="Items" transform="translate(386.000000, 594.000000)" fill="#D8D8D8">
            <rect id="Rectangle" x="0" y="0" width="40" height="40" rx="3"></rect>
        </g>
        <g id="Items" transform="translate(431.000000, 594.000000)" fill="#D8D8D8">
            <rect id="Rectangle" x="0" y="0" width="40" height="40" rx="3"></rect>
        </g>
        <g id="Items" transform="translate(476.000000, 594.000000)" fill="#D8D8D8">
            <rect id="Rectangle" x="0" y="0" width="40" height="40" rx="3"></rect>
        </g>
        <rect id="Rectangle-Copy-5" stroke="#979797" opacity="0.298944382" x="285.5" y="401.5" width="240" height="249"></rect>
        <text id="Fig.-1" font-family="SFProDisplay-Bold, SF Pro Display" font-size="18" font-weight="bold" letter-spacing="0.321428571" fill="#666666">
            <tspan x="253.030831" y="40">Fig. 1</tspan>
        </text>
        <g id="Items" transform="translate(125.000000, 128.000000)" fill="#CCF6F6">
            <rect id="Rectangle" x="0" y="0" width="40" height="40" rx="3"></rect>
        </g>
        <g id="Items" transform="translate(170.000000, 128.000000)" fill="#CCF6F6">
            <rect id="Rectangle" x="0" y="0" width="40" height="40" rx="3"></rect>
        </g>
        <g id="Items" transform="translate(215.000000, 128.000000)" fill="#CCF6F6">
            <rect id="Rectangle" x="0" y="0" width="40" height="40" rx="3"></rect>
        </g>
        <g id="Items" transform="translate(125.000000, 173.000000)" fill="#CCF6F6">
            <rect id="Rectangle" x="0" y="0" width="40" height="40" rx="3"></rect>
        </g>
        <g id="Items" transform="translate(170.000000, 173.000000)" fill="#CCF6F6">
            <rect id="Rectangle" x="0" y="0" width="40" height="40" rx="3"></rect>
        </g>
        <g id="Items" transform="translate(215.000000, 173.000000)" fill="#CCF6F6">
            <rect id="Rectangle" x="0" y="0" width="40" height="40" rx="3"></rect>
        </g>
        <g id="Items" transform="translate(125.000000, 218.000000)" fill="#CCF6F6">
            <rect id="Rectangle" x="0" y="0" width="40" height="40" rx="3"></rect>
        </g>
        <g id="Items" transform="translate(170.000000, 218.000000)" fill="#CCF6F6">
            <rect id="Rectangle" x="0" y="0" width="40" height="40" rx="3"></rect>
        </g>
        <g id="Items" transform="translate(215.000000, 218.000000)" fill="#CCF6F6">
            <rect id="Rectangle" x="0" y="0" width="40" height="40" rx="3"></rect>
        </g>
        <g id="Items" transform="translate(125.000000, 263.000000)" fill="#CCF6F6">
            <rect id="Rectangle" x="0" y="0" width="40" height="40" rx="3"></rect>
        </g>
        <g id="Items" transform="translate(170.000000, 263.000000)" fill="#CCF6F6">
            <rect id="Rectangle" x="0" y="0" width="40" height="40" rx="3"></rect>
        </g>
        <g id="Items" transform="translate(215.000000, 263.000000)" fill="#CCF6F6">
            <rect id="Rectangle" x="0" y="0" width="40" height="40" rx="3"></rect>
        </g>
        <g id="Items" transform="translate(125.000000, 308.000000)" fill="#CCF6F6">
            <rect id="Rectangle" x="0" y="0" width="40" height="40" rx="3"></rect>
        </g>
        <g id="Items" transform="translate(170.000000, 308.000000)" fill="#CCF6F6">
            <rect id="Rectangle" x="0" y="0" width="40" height="40" rx="3"></rect>
        </g>
        <g id="Items" transform="translate(215.000000, 308.000000)" fill="#CCF6F6">
            <rect id="Rectangle" x="0" y="0" width="40" height="40" rx="3"></rect>
        </g>
        <text id="Page-1-Copy" font-family="SFProDisplay-Regular, SF Pro Display" font-size="10" font-weight="normal" letter-spacing="0.178571429" fill="#666666">
            <tspan x="131.236258" y="104">Page 1</tspan>
        </text>
        <text id="Page-2-Copy" font-family="SFProDisplay-Regular, SF Pro Display" font-size="10" font-weight="normal" letter-spacing="0.178571429" fill="#666666">
            <tspan x="391.123465" y="104">Page 2</tspan>
        </text>
        <g id="Items" transform="translate(341.000000, 128.000000)" fill="#CCF6F6">
            <rect id="Rectangle" x="0" y="0" width="40" height="40" rx="3"></rect>
        </g>
        <g id="Items" transform="translate(386.000000, 128.000000)" fill="#CCF6F6">
            <rect id="Rectangle" x="0" y="0" width="40" height="40" rx="3"></rect>
        </g>
        <g id="Items" transform="translate(431.000000, 128.000000)" fill="#CCF6F6">
            <rect id="Rectangle" x="0" y="0" width="40" height="40" rx="3"></rect>
        </g>
        <g id="Items" transform="translate(476.000000, 128.000000)" fill="#CCF6F6">
            <rect id="Rectangle" x="0" y="0" width="40" height="40" rx="3"></rect>
        </g>
        <g id="Items" transform="translate(341.000000, 173.000000)" fill="#CCF6F6">
            <rect id="Rectangle" x="0" y="0" width="40" height="40" rx="3"></rect>
        </g>
        <g id="Items" transform="translate(296.000000, 128.000000)" fill="#CCF6F6">
            <rect id="Rectangle" x="0" y="0" width="40" height="40" rx="3"></rect>
        </g>
        <g id="Items" transform="translate(296.000000, 173.000000)" fill="#CCF6F6">
            <rect id="Rectangle" x="0" y="0" width="40" height="40" rx="3"></rect>
        </g>
        <g id="Items" transform="translate(386.000000, 173.000000)" fill="#CCF6F6">
            <rect id="Rectangle" x="0" y="0" width="40" height="40" rx="3"></rect>
        </g>
        <g id="Items" transform="translate(431.000000, 173.000000)" fill="#CCF6F6">
            <rect id="Rectangle" x="0" y="0" width="40" height="40" rx="3"></rect>
        </g>
        <g id="Items" transform="translate(476.000000, 173.000000)" fill="#CCF6F6">
            <rect id="Rectangle" x="0" y="0" width="40" height="40" rx="3"></rect>
        </g>
        <g id="Items" transform="translate(341.000000, 218.000000)" fill="#CCF6F6">
            <rect id="Rectangle" x="0" y="0" width="40" height="40" rx="3"></rect>
        </g>
        <g id="Items" transform="translate(296.000000, 218.000000)" fill="#CCF6F6">
            <rect id="Rectangle" x="0" y="0" width="40" height="40" rx="3"></rect>
        </g>
        <g id="Items" transform="translate(386.000000, 218.000000)" fill="#CCF6F6">
            <rect id="Rectangle" x="0" y="0" width="40" height="40" rx="3"></rect>
        </g>
        <g id="Items" transform="translate(431.000000, 218.000000)" fill="#CCF6F6">
            <rect id="Rectangle" x="0" y="0" width="40" height="40" rx="3"></rect>
        </g>
        <g id="Items" transform="translate(476.000000, 218.000000)" fill="#CCF6F6">
            <rect id="Rectangle" x="0" y="0" width="40" height="40" rx="3"></rect>
        </g>
        <g id="Items" transform="translate(341.000000, 263.000000)" fill="#CCF6F6">
            <rect id="Rectangle" x="0" y="0" width="40" height="40" rx="3"></rect>
        </g>
        <g id="Items" transform="translate(296.000000, 263.000000)" fill="#CCF6F6">
            <rect id="Rectangle" x="0" y="0" width="40" height="40" rx="3"></rect>
        </g>
        <g id="Items" transform="translate(386.000000, 263.000000)" fill="#CCF6F6">
            <rect id="Rectangle" x="0" y="0" width="40" height="40" rx="3"></rect>
        </g>
        <g id="Items" transform="translate(431.000000, 263.000000)" fill="#CCF6F6">
            <rect id="Rectangle" x="0" y="0" width="40" height="40" rx="3"></rect>
        </g>
        <g id="Items" transform="translate(476.000000, 263.000000)" fill="#CCF6F6">
            <rect id="Rectangle" x="0" y="0" width="40" height="40" rx="3"></rect>
        </g>
        <g id="Items" transform="translate(341.000000, 308.000000)" fill="#CCF6F6">
            <rect id="Rectangle" x="0" y="0" width="40" height="40" rx="3"></rect>
        </g>
        <g id="Items" transform="translate(296.000000, 308.000000)" fill="#CCF6F6">
            <rect id="Rectangle" x="0" y="0" width="40" height="40" rx="3"></rect>
        </g>
        <g id="Items" transform="translate(386.000000, 308.000000)" fill="#CCF6F6">
            <rect id="Rectangle" x="0" y="0" width="40" height="40" rx="3"></rect>
        </g>
        <g id="Items" transform="translate(431.000000, 308.000000)" fill="#CCF6F6">
            <rect id="Rectangle" x="0" y="0" width="40" height="40" rx="3"></rect>
        </g>
        <g id="Items" transform="translate(476.000000, 308.000000)" fill="#CCF6F6">
            <rect id="Rectangle" x="0" y="0" width="40" height="40" rx="3"></rect>
        </g>
        <text id="Page-3-Copy" font-family="SFProDisplay-Regular, SF Pro Display" font-size="10" font-weight="normal" letter-spacing="0.178571429" fill="#666666">
            <tspan x="128.494071" y="390">Page 3</tspan>
        </text>
        <g id="Items" transform="translate(78.000000, 414.000000)" fill="#CCF6F6">
            <rect id="Rectangle" x="0" y="0" width="40" height="40" rx="3"></rect>
        </g>
        <g id="Items" transform="translate(123.000000, 414.000000)" fill="#CCF6F6">
            <rect id="Rectangle" x="0" y="0" width="40" height="40" rx="3"></rect>
        </g>
        <g id="Items" transform="translate(168.000000, 414.000000)" fill="#CCF6F6">
            <rect id="Rectangle" x="0" y="0" width="40" height="40" rx="3"></rect>
        </g>
        <g id="Items" transform="translate(213.000000, 414.000000)" fill="#CCF6F6">
            <rect id="Rectangle" x="0" y="0" width="40" height="40" rx="3"></rect>
        </g>
        <g id="Items" transform="translate(78.000000, 459.000000)" fill="#CCF6F6">
            <rect id="Rectangle" x="0" y="0" width="40" height="40" rx="3"></rect>
        </g>
        <g id="Items" transform="translate(33.000000, 414.000000)" fill="#CCF6F6">
            <rect id="Rectangle" x="0" y="0" width="40" height="40" rx="3"></rect>
        </g>
        <g id="Items" transform="translate(33.000000, 459.000000)" fill="#CCF6F6">
            <rect id="Rectangle" x="0" y="0" width="40" height="40" rx="3"></rect>
        </g>
        <g id="Items" transform="translate(123.000000, 459.000000)" fill="#CCF6F6">
            <rect id="Rectangle" x="0" y="0" width="40" height="40" rx="3"></rect>
        </g>
        <g id="Items" transform="translate(168.000000, 459.000000)" fill="#CCF6F6">
            <rect id="Rectangle" x="0" y="0" width="40" height="40" rx="3"></rect>
        </g>
        <g id="Items" transform="translate(213.000000, 459.000000)" fill="#CCF6F6">
            <rect id="Rectangle" x="0" y="0" width="40" height="40" rx="3"></rect>
        </g>
        <g id="Items" transform="translate(78.000000, 504.000000)" fill="#00FDFD">
            <rect id="Rectangle" x="0" y="0" width="40" height="40" rx="3"></rect>
        </g>
        <g id="Items" transform="translate(33.000000, 504.000000)" fill="#00FDFD">
            <rect id="Rectangle" x="0" y="0" width="40" height="40" rx="3"></rect>
        </g>
        <g id="Items" transform="translate(123.000000, 504.000000)" fill="#00FDFD">
            <rect id="Rectangle" x="0" y="0" width="40" height="40" rx="3"></rect>
        </g>
        <g id="Items" transform="translate(168.000000, 504.000000)" fill="#D8D8D8">
            <rect id="Rectangle" x="0" y="0" width="40" height="40" rx="3"></rect>
        </g>
        <g id="Items" transform="translate(213.000000, 504.000000)" fill="#D8D8D8">
            <rect id="Rectangle" x="0" y="0" width="40" height="40" rx="3"></rect>
        </g>
        <g id="Items" transform="translate(78.000000, 549.000000)" fill="#D8D8D8">
            <rect id="Rectangle" x="0" y="0" width="40" height="40" rx="3"></rect>
        </g>
        <g id="Items" transform="translate(33.000000, 549.000000)" fill="#D8D8D8">
            <rect id="Rectangle" x="0" y="0" width="40" height="40" rx="3"></rect>
        </g>
        <g id="Items" transform="translate(123.000000, 549.000000)" fill="#D8D8D8">
            <rect id="Rectangle" x="0" y="0" width="40" height="40" rx="3"></rect>
        </g>
        <g id="Items" transform="translate(168.000000, 549.000000)" fill="#D8D8D8">
            <rect id="Rectangle" x="0" y="0" width="40" height="40" rx="3"></rect>
        </g>
        <g id="Items" transform="translate(213.000000, 549.000000)" fill="#D8D8D8">
            <rect id="Rectangle" x="0" y="0" width="40" height="40" rx="3"></rect>
        </g>
        <g id="Items" transform="translate(78.000000, 594.000000)" fill="#D8D8D8">
            <rect id="Rectangle" x="0" y="0" width="40" height="40" rx="3"></rect>
        </g>
        <g id="Items" transform="translate(33.000000, 594.000000)" fill="#D8D8D8">
            <rect id="Rectangle" x="0" y="0" width="40" height="40" rx="3"></rect>
        </g>
        <g id="Items" transform="translate(123.000000, 594.000000)" fill="#D8D8D8">
            <rect id="Rectangle" x="0" y="0" width="40" height="40" rx="3"></rect>
        </g>
        <g id="Items" transform="translate(168.000000, 594.000000)" fill="#D8D8D8">
            <rect id="Rectangle" x="0" y="0" width="40" height="40" rx="3"></rect>
        </g>
        <g id="Items" transform="translate(213.000000, 594.000000)" fill="#D8D8D8">
            <rect id="Rectangle" x="0" y="0" width="40" height="40" rx="3"></rect>
        </g>
        <rect id="Rectangle-Copy-7" stroke="#979797" x="22.5" y="401.5" width="240" height="249"></rect>
        <text id="Page-4-Copy" font-family="SFProDisplay-Regular, SF Pro Display" font-size="10" font-weight="normal" letter-spacing="0.178571429" fill="#666666">
            <tspan x="390.313477" y="390">Page  4</tspan>
        </text>
        <g id="Items" transform="translate(341.000000, 414.000000)" fill="#D8D8D8">
            <rect id="Rectangle" x="0" y="0" width="40" height="40" rx="3"></rect>
        </g>
        <g id="Items" transform="translate(386.000000, 414.000000)" fill="#D8D8D8">
            <rect id="Rectangle" x="0" y="0" width="40" height="40" rx="3"></rect>
        </g>
        <g id="Items" transform="translate(431.000000, 414.000000)" fill="#D8D8D8">
            <rect id="Rectangle" x="0" y="0" width="40" height="40" rx="3"></rect>
        </g>
        <g id="Items" transform="translate(476.000000, 414.000000)" fill="#D8D8D8">
            <rect id="Rectangle" x="0" y="0" width="40" height="40" rx="3"></rect>
        </g>
        <g id="Items" transform="translate(341.000000, 459.000000)" fill="#D8D8D8">
            <rect id="Rectangle" x="0" y="0" width="40" height="40" rx="3"></rect>
        </g>
        <g id="Items" transform="translate(296.000000, 414.000000)" fill="#D8D8D8">
            <rect id="Rectangle" x="0" y="0" width="40" height="40" rx="3"></rect>
        </g>
        <g id="Items" transform="translate(296.000000, 459.000000)" fill="#D8D8D8">
            <rect id="Rectangle" x="0" y="0" width="40" height="40" rx="3"></rect>
        </g>
        <g id="Items" transform="translate(386.000000, 459.000000)" fill="#D8D8D8">
            <rect id="Rectangle" x="0" y="0" width="40" height="40" rx="3"></rect>
        </g>
        <g id="Items" transform="translate(431.000000, 459.000000)" fill="#D8D8D8">
            <rect id="Rectangle" x="0" y="0" width="40" height="40" rx="3"></rect>
        </g>
        <g id="Items" transform="translate(476.000000, 459.000000)" fill="#D8D8D8">
            <rect id="Rectangle" x="0" y="0" width="40" height="40" rx="3"></rect>
        </g>
        <g id="Items" transform="translate(341.000000, 504.000000)" fill="#D8D8D8">
            <rect id="Rectangle" x="0" y="0" width="40" height="40" rx="3"></rect>
        </g>
        <g id="Items" transform="translate(296.000000, 504.000000)" fill="#D8D8D8">
            <rect id="Rectangle" x="0" y="0" width="40" height="40" rx="3"></rect>
        </g>
        <g id="Items" transform="translate(386.000000, 504.000000)" fill="#D8D8D8">
            <rect id="Rectangle" x="0" y="0" width="40" height="40" rx="3"></rect>
        </g>
        <g id="Items" transform="translate(431.000000, 504.000000)" fill="#D8D8D8">
            <rect id="Rectangle" x="0" y="0" width="40" height="40" rx="3"></rect>
        </g>
        <g id="Items" transform="translate(476.000000, 504.000000)" fill="#D8D8D8">
            <rect id="Rectangle" x="0" y="0" width="40" height="40" rx="3"></rect>
        </g>
        <g id="Items" transform="translate(341.000000, 549.000000)" fill="#D8D8D8">
            <rect id="Rectangle" x="0" y="0" width="40" height="40" rx="3"></rect>
        </g>
        <g id="Items" transform="translate(296.000000, 549.000000)" fill="#D8D8D8">
            <rect id="Rectangle" x="0" y="0" width="40" height="40" rx="3"></rect>
        </g>
        <g id="Items" transform="translate(386.000000, 549.000000)" fill="#D8D8D8">
            <rect id="Rectangle" x="0" y="0" width="40" height="40" rx="3"></rect>
        </g>
        <g id="Items" transform="translate(431.000000, 549.000000)" fill="#D8D8D8">
            <rect id="Rectangle" x="0" y="0" width="40" height="40" rx="3"></rect>
        </g>
        <g id="Items" transform="translate(476.000000, 549.000000)" fill="#D8D8D8">
            <rect id="Rectangle" x="0" y="0" width="40" height="40" rx="3"></rect>
        </g>
        <g id="Items" transform="translate(341.000000, 594.000000)" fill="#D8D8D8">
            <rect id="Rectangle" x="0" y="0" width="40" height="40" rx="3"></rect>
        </g>
        <g id="Items" transform="translate(296.000000, 594.000000)" fill="#D8D8D8">
            <rect id="Rectangle" x="0" y="0" width="40" height="40" rx="3"></rect>
        </g>
        <g id="Items" transform="translate(386.000000, 594.000000)" fill="#D8D8D8">
            <rect id="Rectangle" x="0" y="0" width="40" height="40" rx="3"></rect>
        </g>
        <g id="Items" transform="translate(431.000000, 594.000000)" fill="#D8D8D8">
            <rect id="Rectangle" x="0" y="0" width="40" height="40" rx="3"></rect>
        </g>
        <g id="Items" transform="translate(476.000000, 594.000000)" fill="#D8D8D8">
            <rect id="Rectangle" x="0" y="0" width="40" height="40" rx="3"></rect>
        </g>
        <text id="This-is-the-viewport" font-family="SFProDisplay-Regular, SF Pro Display" font-size="18" font-weight="normal" letter-spacing="-0.32" fill="#666666">
            <tspan x="62.8462891" y="78">This is the viewport</tspan>
        </text>
        <g id="Group" transform="translate(217.000000, 71.000000)" stroke="#979797">
            <path d="M1.84279361,1.89278575 C27.18913,3.47597547 39.8622982,17.8093088 39.8622982,44.8927858" id="Path"></path>
            <circle id="Oval" fill="#D8D8D8" cx="40" cy="44" r="2"></circle>
            <circle id="Oval" fill="#D8D8D8" cx="2" cy="2" r="2"></circle>
        </g>
    </g>
</svg>